<?xml version="1.0" encoding="utf-8"?>
<!-- Generator: Adobe Illustrator 16.0.0, SVG Export Plug-In . SVG Version: 6.00 Build 0)  -->
<!DOCTYPE svg PUBLIC "-//W3C//DTD SVG 1.1//EN" "http://www.w3.org/Graphics/SVG/1.1/DTD/svg11.dtd">
<svg version="1.1" id="Layer_1" xmlns="http://www.w3.org/2000/svg" xmlns:xlink="http://www.w3.org/1999/xlink" x="0px" y="0px"
	 width="190.814px" height="56.063px" viewBox="0 0 190.814 56.063" enable-background="new 0 0 190.814 56.063"
	 xml:space="preserve">
<g>
	<defs>
		<rect id="SVGID_1_" width="190.814" height="56.063"/>
	</defs>
	<clipPath id="SVGID_2_">
		<use xlink:href="#SVGID_1_"  overflow="visible"/>
	</clipPath>
	<path clip-path="url(#SVGID_2_)" fill="#8E1838" d="M26.367,12.683v18.092c0,7.879-5.106,13.338-13.206,13.338
		C5.502,44.112,0,39.358,0,31.038h4.842c0,5.415,2.949,8.452,8.319,8.452c5.371,0,8.276-3.61,8.276-8.716V17.261v-4.578H26.367z"/>
	<path clip-path="url(#SVGID_2_)" fill="#8E1838" d="M56.96,39.534c-3.169,3.125-7.263,4.578-11.577,4.578
		c-11.18,0-16.199-7.704-16.243-15.803c-0.044-8.1,5.238-16.155,16.243-16.155c4.138,0,8.144,1.541,11.269,4.666l-3.301,3.169
		c-2.201-2.157-5.106-3.169-7.968-3.169c-7.835,0-11.401,5.767-11.356,11.445c0.043,5.634,3.389,11.225,11.356,11.225
		c2.861,0,6.031-1.188,8.188-3.346L56.96,39.534z"/>
	<path clip-path="url(#SVGID_2_)" fill="#8E1838" d="M64.267,34.032v9.463h-4.93V12.683c4.71,0,9.552-0.044,14.262-0.044
		c14.702,0,14.746,21.306,0,21.394H64.267z M64.267,29.497H73.6c8.143,0,8.099-12.324,0-12.324h-9.333V29.497z"/>
	<polygon clip-path="url(#SVGID_2_)" fill="#8E1838" points="113.92,19.901 103.444,34.472 102.387,34.472 92.043,19.901 
		92.043,43.54 87.113,43.54 87.113,12.727 92.835,12.727 103.004,27.165 113.128,12.727 118.852,12.727 118.852,43.54 113.92,43.54 
			"/>
	<path clip-path="url(#SVGID_2_)" fill="#8E1838" d="M27.219,1.865c-0.524-0.514-1.3-0.786-1.981-0.786
		c-1.718,0-2.713,1.289-2.703,2.839c0,1.341,0.796,2.641,2.703,2.641c0.629,0,1.205-0.158,1.792-0.65V4.422h-2.043V3.374h3.133
		v3.007c-0.733,0.807-1.645,1.278-2.882,1.278c-2.692,0-3.855-1.792-3.855-3.741C21.383,1.803,22.735,0,25.238,0
		c0.975,0,1.96,0.367,2.714,1.111L27.219,1.865z"/>
	<path clip-path="url(#SVGID_2_)" fill="#8E1838" d="M50.824,7.513h-1.373L47.22,4.977h-1.551v2.536h-1.174V0.168
		c1.142,0,2.273,0.011,3.416,0.011c1.697,0,2.587,1.163,2.587,2.398c0,1.048-0.544,2.075-1.99,2.285l2.189,2.441L50.824,7.513z
		 M45.669,1.247v2.661h2.232c0.974,0,1.404-0.618,1.404-1.31c0-0.66-0.43-1.352-1.394-1.352H45.669z"/>
	<path clip-path="url(#SVGID_2_)" fill="#8E1838" d="M73.056,0.189v4.285c0,2.159-1.425,3.237-3.195,3.175
		c-1.634-0.042-3.028-1.089-3.028-3.175V0.189h1.163v4.285c0,1.331,0.775,2.054,1.865,2.095c1.173,0.063,2.032-0.702,2.032-2.095
		V0.189H73.056z"/>
	<path clip-path="url(#SVGID_2_)" fill="#8E1838" d="M90.856,5.26v2.253h-1.174V0.179c1.121,0,2.273-0.011,3.395-0.011
		c3.5,0,3.51,5.072,0,5.092H90.856z M90.856,4.181h2.221c1.939,0,1.928-2.934,0-2.934h-2.221V4.181z"/>
	<path clip-path="url(#SVGID_2_)" fill="#8E1838" d="M118.851,3.877c0,1.98-1.205,3.792-3.75,3.792
		c-2.546,0-3.751-1.854-3.751-3.782c0-2.231,1.56-3.845,3.772-3.845C117.625,0.053,118.851,1.896,118.851,3.877 M115.1,6.59
		c1.822,0,2.588-1.288,2.588-2.692c0-1.353-0.776-2.756-2.567-2.788c-1.697,0-2.609,1.184-2.609,2.788
		C112.534,5.197,113.287,6.59,115.1,6.59"/>
	<path clip-path="url(#SVGID_2_)" fill="#192957" d="M169.424,43.431c-0.342,0-0.688-0.008-1.027-0.025
		c-2.165-0.107-4.279-0.551-6.274-1.307c-0.555-0.21-0.396-1.025,0.197-1.024c0.01,0,0.02,0,0.03,0
		c4.847,0,9.375-1.927,12.771-5.427c3.397-3.5,5.189-8.086,5.046-12.912c-0.027-0.923-0.128-1.847-0.298-2.755
		c-0.062-0.329,0.182-0.634,0.517-0.634h8.973c0.261,0,0.485,0.19,0.524,0.449c0.13,0.894,0.2,1.8,0.212,2.703
		c0.072,5.531-2.049,10.767-5.974,14.744C180.183,41.233,174.962,43.431,169.424,43.431"/>
	<path clip-path="url(#SVGID_2_)" fill="#192957" d="M156.121,34.222c-0.261,0-0.487-0.19-0.524-0.449
		c-0.13-0.894-0.2-1.8-0.212-2.703c-0.073-5.531,2.049-10.767,5.974-14.744c3.938-3.991,9.158-6.189,14.697-6.189
		c0.341,0,0.688,0.008,1.027,0.025c2.165,0.107,4.278,0.551,6.273,1.307c0.555,0.21,0.396,1.026-0.196,1.024c-0.01,0-0.02,0-0.031,0
		c-4.846,0-9.374,1.927-12.771,5.426c-3.398,3.5-5.189,8.086-5.046,12.912c0.027,0.925,0.127,1.848,0.298,2.756
		c0.061,0.329-0.183,0.635-0.517,0.635H156.121z"/>
	<path clip-path="url(#SVGID_2_)" fill="#192957" d="M133.433,53.114h-2.688l-0.44,0.97h-1.051l2.307-5.144h1.058l2.308,5.144
		h-1.058L133.433,53.114z M132.089,50.021l-0.955,2.189h1.91L132.089,50.021z"/>
	<polygon clip-path="url(#SVGID_2_)" fill="#192957" points="152.296,52.401 152.296,48.94 153.265,48.94 153.265,54.084 
		152.479,54.084 149.747,50.661 149.747,54.084 148.776,54.084 148.776,48.94 149.562,48.94 	"/>
	<path clip-path="url(#SVGID_2_)" fill="#192957" d="M172.687,51.542c-0.015,1.33-0.83,2.66-2.638,2.66
		c-1.809,0-2.646-1.301-2.646-2.652c0-1.624,1.176-2.711,2.668-2.711C171.827,48.853,172.702,50.205,172.687,51.542 M170.049,53.313
		c1.212,0,1.666-0.911,1.682-1.755c0.015-0.86-0.478-1.816-1.66-1.838c-1.095,0-1.742,0.822-1.712,1.845
		C168.38,52.409,168.836,53.313,170.049,53.313"/>
	<path clip-path="url(#SVGID_2_)" fill="#192957" d="M189.88,50.183c-0.176-0.295-0.661-0.572-1.219-0.572
		c-0.721,0-1.066,0.301-1.066,0.682c0,0.449,0.529,0.574,1.146,0.647c1.073,0.132,2.072,0.411,2.072,1.638
		c0,1.146-1.015,1.639-2.161,1.639c-1.05,0-1.859-0.322-2.24-1.263l0.808-0.419c0.229,0.566,0.823,0.814,1.447,0.814
		c0.609,0,1.185-0.213,1.185-0.771c0-0.484-0.508-0.684-1.19-0.756c-1.052-0.125-2.021-0.404-2.021-1.558
		c0-1.059,1.043-1.491,1.991-1.499c0.801,0,1.632,0.228,2.021,1.021L189.88,50.183z"/>
	<path clip-path="url(#SVGID_2_)" fill="#192957" d="M133.731,41.244c11.813,0,12.059-12.305,12.059-12.305
		s-3.445,2.461-8.367,2.461c-5.66,0-10.582-3.445-10.582-10.09c0-7.137,5.414-11.321,11.813-11.321
		c8.614,0,12.552,6.399,12.552,15.012c0,11.814-5.661,20.427-17.719,20.427c-2.462,0-3.938-0.492-3.938-0.492l0.247-3.938
		C129.794,40.998,131.516,41.244,133.731,41.244 M138.653,14.173c-3.938,0-6.645,2.461-6.645,6.645c0,4.43,2.461,6.399,6.891,6.399
		c3.938,0,7.138-2.215,7.138-2.215v-1.477C146.037,16.88,142.591,14.173,138.653,14.173"/>
	<g clip-path="url(#SVGID_2_)">
		<path fill="#8E1838" d="M5.49,51.513c0,1.341-0.816,2.568-2.54,2.568s-2.54-1.256-2.54-2.562c0-1.511,1.057-2.604,2.554-2.604
			C4.66,48.923,5.49,50.172,5.49,51.513z M2.95,53.351c1.235,0,1.752-0.873,1.752-1.823c0-0.916-0.525-1.866-1.738-1.888
			c-1.149,0-1.767,0.802-1.767,1.888C1.212,52.407,1.723,53.351,2.95,53.351z"/>
		<path fill="#8E1838" d="M10.862,53.975h-0.93l-1.511-1.717h-1.05v1.717H6.577v-4.974c0.773,0,1.54,0.007,2.313,0.007
			c1.149,0,1.752,0.788,1.752,1.625c0,0.709-0.369,1.405-1.348,1.547l1.483,1.653L10.862,53.975z M7.371,49.732v1.802h1.511
			c0.66,0,0.951-0.418,0.951-0.887c0-0.447-0.291-0.916-0.944-0.916H7.371z"/>
		<path fill="#8E1838" d="M15.439,50.151c-0.355-0.348-0.88-0.532-1.341-0.532c-1.164,0-1.837,0.873-1.831,1.923
			c0,0.908,0.54,1.788,1.831,1.788c0.426,0,0.816-0.106,1.213-0.44v-1.008h-1.383v-0.709h2.121v2.037
			c-0.497,0.546-1.114,0.865-1.951,0.865c-1.823,0-2.611-1.213-2.611-2.533c0-1.434,0.915-2.654,2.611-2.654
			c0.66,0,1.327,0.249,1.838,0.752L15.439,50.151z"/>
		<path fill="#8E1838" d="M21.35,49.016v2.902c0,1.461-0.965,2.192-2.164,2.15c-1.107-0.028-2.051-0.738-2.051-2.15v-2.902h0.788
			v2.902c0,0.901,0.525,1.391,1.263,1.419c0.794,0.042,1.376-0.475,1.376-1.419v-2.902H21.35z"/>
		<path fill="#8E1838" d="M23.472,49.008v4.229h2.618v0.738h-3.413v-4.967H23.472z"/>
		<path fill="#8E1838" d="M30.405,53.975V51.91h-2.625v2.065h-0.794v-4.967h0.794v2.164h2.625v-2.164h0.788v4.967H30.405z"/>
		<path fill="#8E1838" d="M37.352,51.513c0,1.341-0.816,2.568-2.54,2.568s-2.54-1.256-2.54-2.562c0-1.511,1.057-2.604,2.554-2.604
			C36.521,48.923,37.352,50.172,37.352,51.513z M34.812,53.351c1.235,0,1.752-0.873,1.752-1.823c0-0.916-0.525-1.866-1.738-1.888
			c-1.149,0-1.767,0.802-1.767,1.888C33.073,52.407,33.584,53.351,34.812,53.351z"/>
		<path fill="#8E1838" d="M42.227,49.008c1.695,0,2.469,1.213,2.49,2.441c0.028,1.256-0.752,2.526-2.49,2.526
			c-0.596,0-1.285,0-1.88,0v-4.967H42.227z M41.134,53.209h1.093c1.213,0,1.724-0.894,1.703-1.767
			c-0.021-0.837-0.532-1.674-1.703-1.674h-1.093V53.209z"/>
		<path fill="#8E1838" d="M49.479,53.975h-3.668c0-1.653,0-3.313,0-4.967h3.647v0.773h-2.853v1.341h2.739v0.738h-2.739v1.334h2.874
			V53.975z"/>
		<path fill="#8E1838" d="M55.511,50.108c-0.234-0.34-0.709-0.546-1.228-0.553c-0.667,0-1.149,0.277-1.149,0.752
			c0,0.482,0.553,0.618,1.206,0.709c1.022,0.142,1.994,0.426,1.994,1.54c-0.007,1.114-1.021,1.533-2.058,1.533
			c-0.951,0-1.682-0.291-2.136-1.128l0.596-0.397c0.355,0.603,0.972,0.816,1.547,0.816c0.596,0,1.256-0.198,1.256-0.823
			c0-0.54-0.575-0.724-1.27-0.816c-0.986-0.135-1.923-0.383-1.923-1.448c-0.007-1.029,1.021-1.426,1.916-1.426
			c0.717,0,1.434,0.17,1.852,0.837L55.511,50.108z"/>
		<path fill="#8E1838" d="M61.038,53.975H57.37c0-1.653,0-3.313,0-4.967h3.647v0.773h-2.853v1.341h2.739v0.738h-2.739v1.334h2.874
			V53.975z"/>
		<path fill="#8E1838" d="M66.481,53.975h-0.93l-1.511-1.717h-1.05v1.717h-0.794v-4.974c0.773,0,1.54,0.007,2.313,0.007
			c1.149,0,1.752,0.788,1.752,1.625c0,0.709-0.369,1.405-1.348,1.547l1.483,1.653L66.481,53.975z M62.99,49.732v1.802h1.511
			c0.66,0,0.951-0.418,0.951-0.887c0-0.447-0.291-0.916-0.944-0.916H62.99z"/>
		<path fill="#8E1838" d="M72.789,52.542v-3.534h0.795v4.967h-0.603l-2.817-3.505v3.505h-0.802v-4.967h0.61L72.789,52.542z"/>
		<path fill="#8E1838" d="M79.75,51.513c0,1.341-0.816,2.568-2.54,2.568s-2.54-1.256-2.54-2.562c0-1.511,1.057-2.604,2.554-2.604
			C78.92,48.923,79.75,50.172,79.75,51.513z M77.21,53.351c1.235,0,1.752-0.873,1.752-1.823c0-0.916-0.525-1.866-1.738-1.888
			c-1.149,0-1.767,0.802-1.767,1.888C75.472,52.407,75.982,53.351,77.21,53.351z"/>
		<path fill="#8E1838" d="M85.122,53.975h-0.93l-1.511-1.717h-1.05v1.717h-0.794v-4.974c0.773,0,1.54,0.007,2.313,0.007
			c1.149,0,1.752,0.788,1.752,1.625c0,0.709-0.369,1.405-1.348,1.547l1.483,1.653L85.122,53.975z M81.631,49.732v1.802h1.511
			c0.66,0,0.951-0.418,0.951-0.887c0-0.447-0.291-0.916-0.944-0.916H81.631z"/>
		<path fill="#8E1838" d="M87.968,49.008c1.696,0,2.469,1.213,2.49,2.441c0.028,1.256-0.752,2.526-2.49,2.526
			c-0.596,0-1.285,0-1.88,0v-4.967H87.968z M86.875,53.209h1.093c1.213,0,1.724-0.894,1.703-1.767
			c-0.021-0.837-0.532-1.674-1.703-1.674h-1.093V53.209z"/>
		<path fill="#8E1838" d="M95.22,53.975h-3.668c0-1.653,0-3.313,0-4.967h3.647v0.773h-2.853v1.341h2.739v0.738h-2.739v1.334h2.874
			V53.975z"/>
		<path fill="#8E1838" d="M99.35,50.108c-0.234-0.34-0.709-0.546-1.228-0.553c-0.667,0-1.149,0.277-1.149,0.752
			c0,0.482,0.553,0.618,1.206,0.709c1.022,0.142,1.994,0.426,1.994,1.54c-0.007,1.114-1.021,1.533-2.058,1.533
			c-0.951,0-1.682-0.291-2.136-1.128l0.596-0.397c0.355,0.603,0.972,0.816,1.547,0.816c0.596,0,1.256-0.198,1.256-0.823
			c0-0.54-0.575-0.724-1.27-0.816c-0.986-0.135-1.923-0.383-1.923-1.448c-0.007-1.029,1.021-1.426,1.916-1.426
			c0.717,0,1.434,0.17,1.852,0.837L99.35,50.108z"/>
		<path fill="#8E1838" d="M102.337,49.725h-1.632v-0.717c1.426,0,2.632,0,4.059,0v0.717h-1.625v4.25h-0.802V49.725z"/>
		<path fill="#8E1838" d="M105.651,53.975v-4.967h0.788v4.967H105.651z"/>
		<path fill="#8E1838" d="M111.256,52.542v-3.534h0.795v4.967h-0.603l-2.817-3.505v3.505h-0.802v-4.967h0.61L111.256,52.542z"/>
		<path fill="#8E1838" d="M118.217,51.513c0,1.341-0.816,2.568-2.54,2.568s-2.54-1.256-2.54-2.562c0-1.511,1.057-2.604,2.554-2.604
			C117.387,48.923,118.217,50.172,118.217,51.513z M115.677,53.351c1.235,0,1.752-0.873,1.752-1.823
			c0-0.916-0.525-1.866-1.738-1.888c-1.149,0-1.767,0.802-1.767,1.888C113.939,52.407,114.45,53.351,115.677,53.351z"/>
	</g>
</g>
</svg>
